<svg width="30" height="30" viewBox="0 0 30 30" fill="none" xmlns="http://www.w3.org/2000/svg">
<g clip-path="url(#clip0_734_5380)">
<path fill-rule="evenodd" clip-rule="evenodd" d="M13.6758 5.51113C11.5106 5.51113 9.43408 6.37128 7.90307 7.90235C6.37206 9.43342 5.51194 11.51 5.51194 13.6753C5.51194 15.8405 6.37206 17.9171 7.90307 19.4482C9.43408 20.9792 11.5106 21.8394 13.6758 21.8394C15.8409 21.8394 17.9174 20.9792 19.4484 19.4482C20.9795 17.9171 21.8396 15.8405 21.8396 13.6753C21.8396 11.51 20.9795 9.43342 19.4484 7.90235C17.9174 6.37128 15.8409 5.51113 13.6758 5.51113ZM3 13.6753C3.00015 11.9728 3.40739 10.2951 4.18776 8.78213C4.96814 7.26912 6.09901 5.96467 7.48602 4.97762C8.87304 3.99057 10.476 3.34953 12.1611 3.108C13.8462 2.86646 15.5647 3.03143 17.1731 3.58914C18.7815 4.14685 20.2333 5.08113 21.4072 6.31402C22.5811 7.54692 23.4432 9.04269 23.9215 10.6765C24.3998 12.3104 24.4804 14.0349 24.1567 15.7063C23.833 17.3776 23.1143 18.9473 22.0606 20.2844L26.6474 24.8714C26.8762 25.1083 27.0028 25.4256 27 25.7549C26.9971 26.0842 26.865 26.3992 26.6321 26.6321C26.3993 26.865 26.0843 26.9971 25.7549 27C25.4256 27.0028 25.1084 26.8762 24.8715 26.6474L20.2847 22.0604C18.7105 23.3014 16.8187 24.074 14.8259 24.29C12.8331 24.506 10.8197 24.1565 9.01622 23.2816C7.21274 22.4067 5.69199 21.0417 4.62803 19.3428C3.56406 17.6439 2.99987 15.6798 3 13.6753ZM12.4198 9.27919C12.4198 8.94607 12.5521 8.6266 12.7877 8.39105C13.0232 8.1555 13.3427 8.02317 13.6758 8.02317C15.1747 8.02317 16.6123 8.61865 17.6722 9.67863C18.7322 10.7386 19.3276 12.1762 19.3276 13.6753C19.3276 14.0084 19.1953 14.3278 18.9598 14.5634C18.7242 14.7989 18.4048 14.9313 18.0717 14.9313C17.7386 14.9313 17.4191 14.7989 17.1836 14.5634C16.948 14.3278 16.8157 14.0084 16.8157 13.6753C16.8157 12.8425 16.4849 12.0438 15.896 11.4549C15.3072 10.866 14.5085 10.5352 13.6758 10.5352C13.3427 10.5352 13.0232 10.4029 12.7877 10.1673C12.5521 9.93178 12.4198 9.61231 12.4198 9.27919Z" fill="#6D6B6B"/>
</g>
<defs>
<clipPath id="clip0_734_5380">
<rect width="30" height="30" fill="white"/>
</clipPath>
</defs>
</svg>